<?xml version="1.0" encoding="utf-8"?>
<!-- Generator: Adobe Illustrator 26.5.0, SVG Export Plug-In . SVG Version: 6.00 Build 0)  -->
<svg version="1.1" id="Capa_1" xmlns="http://www.w3.org/2000/svg" xmlns:xlink="http://www.w3.org/1999/xlink" x="0px" y="0px"
	 viewBox="0 0 80 80" style="enable-background:new 0 0 80 80;" xml:space="preserve">
<style type="text/css">
	.st0{fill:#714724;}
	.st1{fill:#FFFFFF;}
</style>
<circle class="st0" cx="40" cy="40" r="40"/>
<g>
	<path class="st1" d="M25.2,52.1h29.9C53.6,34,28,32.2,25.2,52.1z"/>
	<path class="st1" d="M6.9,49c7.6-0.2,9.3,1.3,10.1,3.1h6.7c2.1-19.1,26.1-20.9,31.7-4.9c0,0,0.6,1.6,1,4.9h6.8c0,0,0.1-3.6,9.7-3.3
		c0.1,0-3.9-2.2-10.3-0.2c-0.8,0.3-2,0.1-3.2-0.2c-0.4-0.2-1-0.4-1.7-0.5c-0.1,0-0.1,0-0.2-0.1c1.1-2,7,0.4,9.7-3.2
		c-2.2,0.8-3.2,0.1-4.9-0.2c-1-0.2-1.8,1.2-4.5,1c-0.3-4.3,12-2.4,13.7-15.1c-2.5,5.9-11.2,4.7-15.2,6.5c-0.7-1.3,2.6-2.7,2.8-5.2
		c-2.1,3.1-4.1,2.3-4.4,3.4c-0.3,1.5-0.6,2-2,1.5c-3.1-2.1,6.8-5.4,6.2-18.5c-2.3,7-8.7,8-9.9,15.2c-0.1,0.6-0.8,0.3-0.9,0.8
		c-3.8-2.8,1.2-4.1-0.6-10c-1.5,2.1-2.3,4.9-4.5,6.3c-5.8-3.9,5.1-7.4-2.9-18.3c1.5,11.5-7.2,8-4.2,18.8c-2,0.6-5.1-3.9-6.4-7.1
		c0.1,1.8-0.6,3.7,0.5,5.9c-3.5-2.8-5.4-8.6-10.5-10.9c5,2.3,2.9,12.7,7.1,14.1c2.6,0.8,2,2.2,1.5,2.7c-2.8,1.1-4.6-4.5-9.7-3.3
		c2.8,0.7,3.7,4.4,6.7,5.9c-6.6,1.9-7.2-5.6-17.9-4.2c6.7,0.3,7.4,6.7,10.5,7.2c3.2,0.5,5,2.1,4.3,3.5c-2.1,0.9-5.1-2.6-8.1-0.8
		c2.7,1.3,2.8,2.7,6.6,3.8C18.9,51.1,13.7,45.2,6.9,49z"/>
</g>
</svg>
